<svg width="166" height="48" viewBox="0 0 166 48" fill="none" xmlns="http://www.w3.org/2000/svg">
<path fill-rule="evenodd" clip-rule="evenodd" d="M112.342 17.6998C112.342 22.3193 107.782 32.4621 106.316 35.2797C100.189 47.0599 92.0039 46.9803 82.7627 46.9803C78.247 46.9803 68.1829 47.0322 68.1829 38.5799C68.1829 34.7995 71.4777 27.8703 74.183 21.3004C75.3337 18.5062 80.2348 9.11992 96.9231 9.11992C103.807 9.11992 112.342 10.2003 112.342 17.6998ZM93.0236 18.2398C91.8657 18.2398 90.1433 18.4201 89.3629 19.4997C86.4403 23.5467 84.503 33.6658 84.503 36.48C84.503 38.4021 85.8388 38.2796 87.6231 38.2796C88.6615 38.2796 90.3369 38.3056 91.2833 37.3203C93.8509 34.6455 96.0664 22.5245 96.0664 20.336C96.0664 18.7799 95.9547 18.2398 93.0236 18.2398ZM52.2232 18.5996C52.2232 29.2348 45.6813 31.4401 38.4231 31.4401H33.3233C28.227 31.4401 17.9631 31.1399 17.9631 31.1399C17.1395 31.1235 16.5233 30.9598 16.5233 31.4401C16.5233 34.9079 20.4464 40.1402 26.4231 40.1402C31.1301 40.1402 34.1633 37.2001 34.8233 36.5037C34.8233 36.5037 40.2314 35.8802 43.7031 35.8802C47.0744 35.8802 52.0432 36.4197 52.0432 38.34C52.0432 42.0854 39.8734 48 29.6632 48C14.2906 48 0.443359 39.6487 0.443359 29.5801C0.443359 12.7082 33.0062 0 42.5034 0C51.0565 5.77861e-08 52.2232 13.622 52.2232 18.5996ZM38.9631 17.46C38.9631 15.2893 38.8607 12.1796 37.1632 12.1796C31.64 12.1796 21.9362 20.6272 20.9633 21.5998C20.2433 22.3202 20.7817 22.2598 21.7432 22.2598H34.1633C38.5638 22.2598 38.9631 21.5194 38.9631 17.46ZM67.2236 24.6604C67.2236 25.7998 65.8963 28.9362 65.7084 29.3995C64.5151 32.343 61.3863 32.8199 59.1832 32.8199C55.8788 32.8199 54.7432 31.6331 54.7432 29.7601C54.7432 28.311 55.9623 25.8088 56.1232 25.4403C57.6113 22.0307 60.2743 21.6602 62.9032 21.6602C65.1319 21.6602 67.2236 22.5871 67.2236 24.6604ZM164.246 17.761C164.246 23.2501 157.716 42.0442 156.645 44.8646C155.941 46.7179 154.591 46.9803 152.843 46.9803C149.679 46.9803 147.294 46.2269 146.13 45.2958C145.889 45.1039 145.591 44.6926 145.794 44.0893C146.983 40.5448 151.497 27.7816 151.497 25.0244C151.497 23.5148 151.05 22.3797 149.543 22.3797C140.407 22.3797 123.62 41.8755 120.503 45.3602C119.483 46.4995 117.989 46.7399 116.243 46.7399C114.083 46.7399 111.782 45.5932 111.563 45.4798C110.88 45.127 110.847 44.7366 111.05 43.9132L111.623 41.5798C112.673 37.3112 118.112 21.5186 121.883 12.9595C122.043 12.5981 122.199 12.2973 123.018 12.1695C123.399 12.11 124.646 11.8196 126.383 11.8196C127.658 11.8196 130.134 11.9102 131.375 12.5758C131.375 12.5758 131.385 12.5572 131.385 14.6403C131.385 15.5402 131.484 18.5996 134.363 18.5996C139.223 18.5996 148.044 10.2599 155.843 10.2599C162.7 10.2599 164.246 14.4908 164.246 17.761Z" fill="#EA1B0A"/>
</svg>
